# xmcd
#
# Track frame offsets: 
#        150
#        15473
#        47984
#        65864
#        110110
#        136805
#        168401
#        186741
#        221077
#        234186
#        268682
#        304669
#
# Disc length: 4328 seconds
#
# Revision: 1
# Processed by: cddbd v1.5.2PL0 Copyright (c) Steve Scherf et al.
# Submitted via: ExactAudioCopy v1.3
#
DISCID=b510e60c
DTITLE=Philippe Jaroussky - Carestini
DYEAR=2006
DGENRE=Classical
TTITLE0=Nicola Antonio Porpora (1686-1768) - Siface - Tu che d'ardir m
TTITLE0='accendi
TTITLE1=Giovanni Maria Capelli (1648-1726) - I fratelli riconosciuti -
TTITLE1=Ciel nemico, avverse stelle
TTITLE2=George Frideric Handel (1685-1759) - Arianna in Creta - Qui ti
TTITLE2=sfido, o mostro infame!
TTITLE3=George Frideric Handel (1685-1759) - Ariodante - E vivo ancora
TTITLE3=? - Scherza, infida
TTITLE4=George Frideric Handel (1685-1759) - Alcina - Sta nell'Ircana
TTITLE5=George Frideric Handel (1685-1759) - Alcina - Chi scopre al mi
TTITLE5=o pensiero - Mi lusinga il dolce affetto
TTITLE6=Leonardo Leo (1694-1744) - Farnace - Se mi dai morte
TTITLE7=Johann Adolph Hasse (1699-1783) - La clemenza di Tito - Se mai
TTITLE7=senti
TTITLE8=Johann Adolph Hasse (1699-1783) - La clemenza di Tito - Vo dis
TTITLE8=perato a morte
TTITLE9=Christoph Willibald von Gluck (1714-1787) - Demofoonte - Spera
TTITLE9=i vicino il lido
TTITLE10=Carl Heinrich Graun (1704-1759) - Orfeo - Ecco all'aure super
TTITLE10=ne - Mio bel nume, ah! dove sei?
TTITLE11=Carl Heinrich Graun (1704-1759) - Orfeo - In mirar la mia sve
TTITLE11=ntura
EXTD=
EXTT0=
EXTT1=
EXTT2=
EXTT3=
EXTT4=
EXTT5=
EXTT6=
EXTT7=
EXTT8=
EXTT9=
EXTT10=
EXTT11=
PLAYORDER=
